:version 1.10
:name ASF
:units
  mass 1
  length 1
  angle deg
:documentation
  ASF file generated by Kaydara
:root
  axis xyz
  order  tx ty tz rx ry rz
  position 0 0 0
  orientation 0 0 0
:bonedata
  begin
    id 1
    name RightUpLegDummy
    direction -0.718183 -0.695806 0.00816078
    length 4.904
    axis 0 0 0 xyz
  end
  begin
    id 2
    name RightUpLeg
    direction -0.0736652 -0.994202 0.0783343
    length 17.4976
    axis -2.72909 -3.00389 -4.00133 xyz
    dof rx ry rz
  end
  begin
    id 3
    name RightLeg
    direction -0.0389037 -0.994596 -0.0962598
    length 16.5821
    axis 3.95836 -18.5909 -4.46993 xyz
    dof rx ry rz
  end
  begin
    id 4
    name RightFoot
    direction -0.311643 -0.412678 0.855906
    length 3.77069
    axis -1.99483 -18.8351 -3.27644 xyz
    dof rx ry rz
  end
  begin
    id 5
    name RightToes
    direction -0.317852 0.0389852 0.947339
    length 3.85082
    axis -2.00228 -18.1713 -3.25211 xyz
    dof rx ry rz
  end
  begin
    id 6
    name SpineDummy
    direction 8.3039e-015 1 4.44677e-016
    length 4.6813
    axis 0 0 0 xyz
  end
  begin
    id 7
    name Spine
    direction -0.000262373 0.999988 0.00493267
    length 10.1015
    axis -0.00246081 0.00062579 0.0150362 xyz
    dof rx ry rz
  end
  begin
    id 8
    name Spine1
    direction 0 0 0
    length 0
    axis -0.00349562 0.000650293 0.0196666 xyz
    dof rx ry rz
  end
  begin
    id 9
    name HEadDummy
    direction -0.000343232 0.999999 0.00123745
    length 3.43865
    axis -0.00349562 0.000650293 0.0196666 xyz
  end
  begin
    id 10
    name HEad
    direction -0.0461221 0.980933 0.188796
    length 5.12695
    axis -0.00351404 -7.04812 0.0199272 xyz
    dof rx ry rz
  end
  begin
    id 11
    name LeftShoulder1Dummy
    direction 0.998904 -0.0399089 -0.0244534
    length 3.5433
    axis -0.00349562 0.000650293 0.0196666 xyz
  end
  begin
    id 12
    name LeftShoulder1
    direction 0.99951 1.64443e-005 0.0312999
    length 4.05031
    axis -0.00349562 0.000650293 0.0196666 xyz
    dof rx ry rz
  end
  begin
    id 13
    name LeftArm
    direction 0.984791 0.0515299 0.165927
    length 12.9126
    axis -64.823 -10.7743 5.20463 xyz
    dof rx ry rz
  end
  begin
    id 14
    name LeftForeArm
    direction 0.984968 0.0534808 0.16425
    length 10.8596
    axis -30.0462 -7.70601 1.87451 xyz
    dof rx ry rz
  end
  begin
    id 15
    name LeftHand
    direction 0.975871 0.0289682 0.216418
    length 6.62295
    axis -20.1348 -6.98077 1.86072 xyz
    dof rx ry rz
  end
  begin
    id 16
    name RightShoulderDummy
    direction -0.998877 -0.0405946 -0.0244307
    length 3.5433
    axis -0.00349562 0.000650293 0.0196666 xyz
  end
  begin
    id 17
    name RightShoulder
    direction -0.998933 -0.0249743 -0.0388558
    length 4.05031
    axis -0.0205316 -4.02113 1.41395 xyz
    dof rx ry rz
  end
  begin
    id 18
    name RightArm
    direction -0.997559 0.068664 0.0127103
    length 12.9638
    axis -67.3882 1.84188 -6.15987 xyz
    dof rx ry rz
  end
  begin
    id 19
    name RightForeArm
    direction -0.991508 0.0912848 0.0926241
    length 10.8312
    axis -22.1975 3.41087 -4.28711 xyz
    dof rx ry rz
  end
  begin
    id 20
    name RightHand
    direction -0.989262 0.0600788 0.133232
    length 6.57864
    axis -12.2911 2.17515 -4.39675 xyz
    dof rx ry rz
  end
  begin
    id 21
    name LeftUpLegDummy
    direction 0.718183 -0.695806 0.00816078
    length 4.904
    axis 0 0 0 xyz
  end
  begin
    id 22
    name LeftUpLeg
    direction 0.0831398 -0.99469 0.0606531
    length 17.4976
    axis -1.71016 2.29552 4.63832 xyz
    dof rx ry rz
  end
  begin
    id 23
    name LeftLeg
    direction 0.0498442 -0.991778 -0.117862
    length 16.5821
    axis 5.13757 15.5727 5.13348 xyz
    dof rx ry rz
  end
  begin
    id 24
    name LeftFoot
    direction 0.269026 -0.433896 0.85986
    length 3.77069
    axis -0.576502 15.6961 4.10267 xyz
    dof rx ry rz
  end
  begin
    id 25
    name LeftToes
    direction 0.277311 0.0251143 0.960452
    length 3.85048
    axis -0.576502 15.6961 4.10267 xyz
    dof rx ry rz
  end
:hierarchy
  begin
    root RightUpLegDummy SpineDummy LeftUpLegDummy
    RightUpLegDummy RightUpLeg
    RightUpLeg RightLeg
    RightLeg RightFoot
    RightFoot RightToes
    SpineDummy Spine
    Spine Spine1
    Spine1 HEadDummy LeftShoulder1Dummy RightShoulderDummy
    HEadDummy HEad
    LeftShoulder1Dummy LeftShoulder1
    LeftShoulder1 LeftArm
    LeftArm LeftForeArm
    LeftForeArm LeftHand
    RightShoulderDummy RightShoulder
    RightShoulder RightArm
    RightArm RightForeArm
    RightForeArm RightHand
    LeftUpLegDummy LeftUpLeg
    LeftUpLeg LeftLeg
    LeftLeg LeftFoot
    LeftFoot LeftToes
  end

:SAMPLES-PER-SECOND 30
:FULLY-SPECIFIED
:DEGREES
92
root  19.1793 31.5315 -1.05833 31.2862 -35.8993 -1.56199
RightUpLeg  -64.3031 -2.71999 14.0886
RightLeg  71.0471 13.3194 -10.024
RightFoot  -37.7166 -0.365522 -2.27198
RightToes  -5.82073e-011 -3.18055e-015 -2.98177e-016
Spine  36.6797 -0.240598 9.69484
Spine1  -11.0678 1.91892 -4.1663
HEad  -48.0239 -0.243053 5.45164
LeftShoulder1  -3.88251e-019 9.70628e-020 -3.87848e-018
LeftArm  -12.4558 -23.1246 -66.4673
LeftForeArm  -24.6051 -28.8615 4.98666
LeftHand  -1.22517 -5.25648 14.1329
RightShoulder  2.17176 5.30316 12.838
RightArm  6.34737 24.5428 56.807
RightForeArm  -10.1944 41.0388 -23.0842
RightHand  -4.82697 11.2457 -32.6639
LeftUpLeg  -53.5733 5.05095 -9.56245
LeftLeg  66.7073 -3.73918 28.5723
LeftFoot  -40.5356 -3.8892 -15.3775
LeftToes  1.2018e-011 -3.94675e-011 -1.33631e-011
93
root  18.0048 32.8132 0.404258 29.1061 -35.3193 -0.516603
RightUpLeg  -56.6313 -4.20351 12.7724
RightLeg  66.0758 12.5904 -9.62159
RightFoot  -35.5887 -0.0658719 -0.948292
RightToes  -5.82073e-011 -3.18055e-015 -2.98177e-016
Spine  36.6701 -0.292658 9.26616
Spine1  -14.113 1.57498 -3.2604
HEad  -47.7092 -1.34823 5.76539
LeftShoulder1  -3.88251e-019 9.70628e-020 -3.87848e-018
LeftArm  -13.244 -35.6009 -63.4661
LeftForeArm  -20.9118 -39.0147 8.12214
LeftHand  -1.26627 -5.8606 13.6837
RightShoulder  1.38261 3.47265 9.35884
RightArm  3.33347 35.466 53.1631
RightForeArm  -13.0472 49.1613 -30.7568
RightHand  -5.49235 11.8755 -35.6444
LeftUpLeg  -45.0604 6.89814 -9.39592
LeftLeg  60.3191 -2.29187 23.5948
LeftFoot  -38.3142 -3.69881 -15.9579
LeftToes  1.2018e-011 -3.94675e-011 -1.33631e-011
94
root  16.5059 34.2981 2.28524 26.1771 -34.928 1.05159
RightUpLeg  -47.2136 -6.74587 10.9128
RightLeg  60.5955 12.7844 -7.13775
RightFoot  -32.6609 0.154358 0.220575
RightToes  -5.82073e-011 -3.18055e-015 -2.98177e-016
Spine  36.0015 -1.11233 8.88219
Spine1  -17.1372 0.805399 -4.45551
HEad  -45.0748 -2.2558 6.73171
LeftShoulder1  -3.88251e-019 9.70628e-020 -3.87848e-018
LeftArm  -14.7272 -42.7238 -57.5023
LeftForeArm  -13.9883 -50.9796 13.3719
LeftHand  -1.0516 -5.9177 11.4332
RightShoulder  0.572917 1.40633 4.7725
RightArm  -4.27871 40.3545 47.1492
RightForeArm  -16.6347 55.4365 -39.3285
RightHand  -5.65255 12.3229 -35.7359
LeftUpLeg  -34.4966 9.73303 -9.16396
LeftLeg  51.9301 -2.15705 17.092
LeftFoot  -33.5529 -3.36499 -18.111
LeftToes  1.2018e-011 -3.94675e-011 -1.33631e-011
95
root  14.6272 36.3152 4.63333 22.3811 -35 3.12856
RightUpLeg  -34.538 -10.5651 7.97238
RightLeg  50.7536 13.9279 -3.53576
RightFoot  -27.0358 0.29887 1.78061
RightToes  -5.82073e-011 -3.18055e-015 -2.98177e-016
Spine  32.9117 -2.04812 8.64429
Spine1  -18.8068 0.0127796 -8.10483
HEad  -37.4766 -4.00828 7.8665
LeftShoulder1  -3.88251e-019 9.70628e-020 -3.87848e-018
LeftArm  -14.983 -43.9967 -54.4923
LeftForeArm  -8.06715 -61.8104 21.9285
LeftHand  -1.61865 -9.01385 13.5999
RightShoulder  -0.100618 -0.171 -0.965701
RightArm  -12.224 35.1244 41.8014
RightForeArm  -23.6138 61.3715 -52.0535
RightHand  -5.31393 12.741 -33.0015
LeftUpLeg  -21.5506 12.8935 -8.25071
LeftLeg  39.2978 -2.22041 11.1042
LeftFoot  -20.096 -1.31123 -19.8626
LeftToes  1.2018e-011 -3.94675e-011 -1.33631e-011
96
root  12.3261 38.6124 7.52662 19.3121 -34.3734 4.70863
RightUpLeg  -19.8575 -14.6676 4.47829
RightLeg  35.4734 16.1057 -0.731659
RightFoot  -13.5206 0.00739496 4.93463
RightToes  -5.82073e-011 -3.18055e-015 -2.98177e-016
Spine  25.4089 -2.07674 8.91021
Spine1  -18.517 -0.256243 -10.7722
HEad  -22.9596 -6.31619 7.14894
LeftShoulder1  -3.88251e-019 9.70628e-020 -3.87848e-018
LeftArm  -13.0076 -39.0814 -56.8823
LeftForeArm  -9.21816 -68.3422 31.4663
LeftHand  -2.1298 -9.37246 17.3899
RightShoulder  -0.611059 -0.575447 -7.5811
RightArm  -15.9768 20.5391 40.5492
RightForeArm  -38.571 65.8241 -71.8798
RightHand  -5.04714 13.1763 -30.7365
LeftUpLeg  -8.68998 14.1852 -5.68761
LeftLeg  24.8177 -3.55689 6.12546
LeftFoot  2.04902 2.54045 -18.9913
LeftToes  1.2018e-011 -3.94675e-011 -1.33631e-011
97
root  9.82294 40.5039 10.6004 18.3714 -31.4733 5.91724
RightUpLeg  -8.57392 -14.9045 1.92613
RightLeg  21.9181 16.0408 0.237599
RightFoot  6.88809 -1.55762 8.56391
RightToes  -5.82073e-011 -3.18055e-015 -2.98177e-016
Spine  14.2657 -1.57136 8.47884
Spine1  -16.9212 -0.199797 -10.5633
HEad  -4.54835 -8.00416 4.94046
LeftShoulder1  -3.88251e-019 9.70628e-020 -3.87848e-018
LeftArm  -11.6912 -29.8327 -61.5322
LeftForeArm  -11.1653 -70.5172 36.1129
LeftHand  -2.15006 -9.66486 17.2132
RightShoulder  -0.992911 -0.480005 -13.1577
RightArm  -16.055 3.92728 40.3411
RightForeArm  -55.1521 66.9526 -89.9351
RightHand  -4.79812 12.7719 -29.9057
LeftUpLeg  -2.75464 10.7775 -2.74153
LeftLeg  20.2633 -7.35839 3.3582
LeftFoot  20.7159 5.62164 -18.1106
LeftToes  1.2018e-011 -3.94675e-011 -1.33631e-011
98
root  7.56844 41.9468 13.2046 18.8126 -26.8322 6.93661
RightUpLeg  -5.18836 -10.2217 1.88516
RightLeg  21.2511 12.6781 0.927415
RightFoot  21.6694 -3.39299 10.5794
RightToes  -5.82073e-011 -3.18055e-015 -2.98177e-016
Spine  4.35843 -1.68036 6.92544
Spine1  -15.2696 -0.535658 -9.40044
HEad  11.3335 -9.19106 3.86154
LeftShoulder1  -3.88251e-019 9.70628e-020 -3.87848e-018
LeftArm  -11.8073 -20.1021 -64.8289
LeftForeArm  -15.5628 -72.1735 40.2092
LeftHand  -1.82964 -10.2468 14.1019
RightShoulder  -1.01361 -1.16352 -13.4698
RightArm  -13.3771 -5.63635 36.6705
RightForeArm  -62.9322 67.0853 -95.8129
RightHand  -4.355 11.8557 -28.6479
LeftUpLeg  -7.48074 4.52384 -0.526123
LeftLeg  35.4276 -9.94374 3.7961
LeftFoot  25.7235 6.35176 -17.6827
LeftToes  1.2018e-011 -3.94675e-011 -1.33631e-011
99
root  5.91862 42.9628 15.1069 18.3623 -22.6026 6.29174
RightUpLeg  -8.22067 -20.4721 4.36108
RightLeg  39.2965 21.9607 4.30633
RightFoot  21.9625 -3.72859 11.4966
RightToes  -5.82073e-011 -3.18055e-015 -2.98177e-016
Spine  0.769944 -2.71121 7.33742
Spine1  -14.1677 -1.14238 -8.95517
HEad  20.2349 -10.2763 4.44051
LeftShoulder1  -3.88251e-019 9.70628e-020 -3.87848e-018
LeftArm  -11.6352 -8.01685 -64.0608
LeftForeArm  -36.608 -76.5928 58.6608
LeftHand  -1.39198 -8.66437 12.1276
RightShoulder  -0.897712 -1.39674 -11.686
RightArm  -11.9064 -14.2298 33.4399
RightForeArm  -68.6281 66.9146 -100.889
RightHand  -4.11732 11.5469 -27.6248
LeftUpLeg  -15.5781 0.207917 2.57909
LeftLeg  61.6248 -10.5172 7.7996
LeftFoot  23.3535 4.56705 -13.5632
LeftToes  1.2018e-011 -3.94675e-011 -1.33631e-011
100
root  4.68223 43.5065 16.5455 14.9642 -21.5816 5.21465
RightUpLeg  -11.5634 -22.2349 4.23733
RightLeg  65.8548 19.6492 8.16453
RightFoot  15.2153 -3.34963 12.8986
RightToes  -5.82073e-011 -3.18055e-015 -2.98177e-016
Spine  2.92176 -3.47927 7.22674
Spine1  -11.6082 -1.3047 -8.27468
HEad  22.0532 -10.2245 5.1355
LeftShoulder1  -3.88251e-019 9.70628e-020 -3.87848e-018
LeftArm  -11.7505 5.84291 -58.4812
LeftForeArm  -77.3799 -78.2571 97.3205
LeftHand  -1.58291 -8.34006 13.9071
RightShoulder  -0.641809 -0.742598 -8.03518
RightArm  -12.3038 -20.7588 31.0198
RightForeArm  -73.9985 66.6935 -104.697
RightHand  -4.05983 10.9447 -28.2192
LeftUpLeg  -20.7482 -1.61355 4.91523
LeftLeg  87.8799 -13.6855 13.3174
LeftFoot  21.352 2.49441 -7.88474
LeftToes  1.2018e-011 -3.94675e-011 -1.33631e-011
101
root  3.60214 43.8513 17.8737 10.5894 -23.9302 4.33675
RightUpLeg  -15.566 -20.3371 2.64952
RightLeg  91.5734 15.7745 6.31779
RightFoot  8.18934 -1.78006 8.93714
RightToes  -5.82073e-011 -3.18055e-015 -2.98177e-016
Spine  5.95032 -3.18483 5.24097
Spine1  -6.13432 -0.763438 -5.45662
HEad  19.5065 -8.56306 5.11969
LeftShoulder1  -3.88251e-019 9.70628e-020 -3.87848e-018
LeftArm  -12.3566 20.4239 -52.3197
LeftForeArm  -94.4842 -77.3114 113.772
LeftHand  -2.23064 -10.7519 16.6572
RightShoulder  -0.266454 0.44283 -3.90048
RightArm  -13.5061 -25.7274 30.412
RightForeArm  -74.1405 66.9327 -102.746
RightHand  -3.89931 9.65922 -29.3328
LeftUpLeg  -24.6744 -1.45288 5.7818
LeftLeg  112.304 -18.1242 11.2368
LeftFoot  21.8827 0.792675 -2.34997
LeftToes  1.2018e-011 -3.94675e-011 -1.33631e-011
102
root  2.6827 43.781 19.1326 8.15615 -27.5849 3.65086
RightUpLeg  -23.5547 -16.9668 2.27471
RightLeg  113.929 17.102 -2.37487
RightFoot  1.39827 0.243823 -2.10624
RightToes  -5.82073e-011 -3.18055e-015 -2.98177e-016
Spine  7.77926 -2.20831 3.84059
Spine1  -0.893396 0.105051 -2.57089
HEad  15.8682 -6.37023 4.91717
LeftShoulder1  -3.88251e-019 9.70628e-020 -3.87848e-018
LeftArm  -12.6827 34.2724 -48.6348
LeftForeArm  -82.8325 -78.3473 100.392
LeftHand  -2.36171 -12.0831 16.2141
RightShoulder  0.209254 2.11854 -0.170797
RightArm  -13.7103 -31.3348 30.6266
RightForeArm  -64.3188 67.3007 -92.9621
RightHand  -3.54082 8.60382 -28.6563
LeftUpLeg  -30.9577 0.748525 5.09578
LeftLeg  134.012 -18.5126 5.19427
LeftFoot  20.6557 -0.895283 3.22605
LeftToes  1.2018e-011 -3.94675e-011 -1.33631e-011
103
root  1.53984 43.2638 20.6635 7.4902 -31.3672 3.40083
RightUpLeg  -33.0822 -14.2775 3.43186
RightLeg  124.965 26.7057 -14.9247
RightFoot  -4.21057 1.00229 -12.2432
RightToes  -5.82073e-011 -3.18055e-015 -2.98177e-016
Spine  9.2519 -0.897038 3.63246
Spine1  1.32258 0.985755 -2.5125
HEad  12.9762 -4.62449 5.18319
LeftShoulder1  -3.88251e-019 9.70628e-020 -3.87848e-018
LeftArm  -11.2904 47.4996 -46.5878
LeftForeArm  -57.6986 -78.053 71.3585
LeftHand  -2.00108 -11.3183 14.4701
RightShoulder  0.710848 3.60011 2.99744
RightArm  -12.3509 -39.342 30.9256
RightForeArm  -47.8822 66.6649 -79.0035
RightHand  -3.26727 8.49273 -26.754
LeftUpLeg  -38.6716 5.81427 0.976375
LeftLeg  144.563 -22.809 6.67763
LeftFoot  13.7439 -1.55515 6.63417
LeftToes  1.2018e-011 -3.94675e-011 -1.33631e-011
104
root  -0.00445754 42.7905 22.7198 6.34241 -34.2395 2.91999
RightUpLeg  -40.3789 -11.7257 4.84846
RightLeg  119.72 32.6669 -24.8947
RightFoot  -8.02014 0.794107 -16.7272
RightToes  -5.82073e-011 -3.18055e-015 -2.98177e-016
Spine  12.1924 -0.235448 5.18765
Spine1  1.71646 1.66225 -4.77117
HEad  10.3902 -3.51812 5.77415
LeftShoulder1  -3.88251e-019 9.70628e-020 -3.87848e-018
LeftArm  -7.8117 60.3068 -44.0748
LeftForeArm  -41.3491 -75.4929 49.7715
LeftHand  -2.08713 -10.9505 15.3814
RightShoulder  1.23457 4.6569 6.21601
RightArm  -9.41218 -48.7391 30.0023
RightForeArm  -31.6176 64.5918 -64.8326
RightHand  -3.1858 8.81767 -25.5349
LeftUpLeg  -47.039 10.3046 -5.49745
LeftLeg  139.071 -31.3876 14.7879
LeftFoot  4.57479 -1.045 6.75989
LeftToes  1.2018e-011 -3.94675e-011 -1.33631e-011
105
root  -1.43585 42.3397 24.8053 3.28838 -36.1878 2.26336
RightUpLeg  -43.4166 -8.76786 4.09157
RightLeg  107.267 25.5609 -23.2498
RightFoot  -11.6438 0.253446 -14.9484
RightToes  -5.82073e-011 -3.18055e-015 -2.98177e-016
Spine  17.0124 -0.377299 7.27176
Spine1  3.07786 2.15947 -6.74933
HEad  6.58319 -3.12571 6.24629
LeftShoulder1  -3.88251e-019 9.70628e-020 -3.87848e-018
LeftArm  -4.16182 72.0628 -41.115
LeftForeArm  -36.874 -73.4421 40.7795
LeftHand  -2.29343 -11.1592 16.6605
RightShoulder  1.77852 5.43464 9.52538
RightArm  -4.77598 -57.8716 26.6121
RightForeArm  -19.7714 61.5852 -53.6971
RightHand  -3.1434 8.79542 -25.2467
LeftUpLeg  -52.2357 9.82515 -8.06851
LeftLeg  124 -28.7737 19.6782
LeftFoot  -5.18371 -0.346805 4.42602
LeftToes  1.2018e-011 -3.94675e-011 -1.33631e-011
106
root  -2.68773 41.6258 26.6865 0.356824 -37.7285 1.73712
RightUpLeg  -43.0936 -7.46084 3.53153
RightLeg  89.6422 16.6378 -13.3038
RightFoot  -13.2926 0.0304854 -7.03925
RightToes  -5.82073e-011 -3.18055e-015 -2.98177e-016
Spine  21.0655 -0.328783 8.4615
Spine1  6.20078 2.67101 -6.71093
HEad  1.5202 -3.54271 6.48002
LeftShoulder1  -3.88251e-019 9.70628e-020 -3.87848e-018
LeftArm  -4.92807 82.0829 -41.9994
LeftForeArm  -36.8197 -72.6414 37.8577
LeftHand  -1.99975 -10.6254 15.0442
RightShoulder  2.31835 6.0237 12.737
RightArm  2.03158 -65.8408 20.4803
RightForeArm  -12.7774 58.8823 -46.7876
RightHand  -3.14677 8.6902 -25.4535
LeftUpLeg  -53.1107 7.30528 -6.95423
LeftLeg  106.773 -18.7713 14.4382
LeftFoot  -12.3099 -0.0149043 -1.07711
LeftToes  1.2018e-011 -3.94675e-011 -1.33631e-011
